<svg width="73" height="25" viewBox="0 0 73 25" fill="none" xmlns="http://www.w3.org/2000/svg">
<path opacity="0.25" d="M25 12.5C25 19.4036 19.4036 25 12.5 25C5.59644 25 0 19.4036 0 12.5C0 5.59644 5.59644 0 12.5 0C19.4036 0 25 5.59644 25 12.5Z" fill="url(#paint0_linear_31_21)"/>
<path opacity="0.5" d="M28.5 12.5C28.5 19.4036 22.9036 25 16 25C9.09644 25 3.5 19.4036 3.5 12.5C3.5 5.59644 9.09644 0 16 0C22.9036 0 28.5 5.59644 28.5 12.5Z" fill="url(#paint1_linear_31_21)"/>
<path opacity="0.75" d="M32.5 12.5C32.5 19.4036 26.9036 25 20 25C13.0964 25 7.5 19.4036 7.5 12.5C7.5 5.59644 13.0964 0 20 0C26.9036 0 32.5 5.59644 32.5 12.5Z" fill="url(#paint2_linear_31_21)"/>
<path d="M37.5 12.5C37.5 19.4036 31.9036 25 25 25C18.0964 25 12.5 19.4036 12.5 12.5C12.5 5.59644 18.0964 0 25 0C31.9036 0 37.5 5.59644 37.5 12.5Z" fill="url(#paint3_linear_31_21)"/>
<path d="M30.82 8.97049L30.612 9.00249C28.6707 9.27982 27.0973 9.57315 25.892 9.88249C24.6973 10.1918 23.6787 10.3465 22.836 10.3465C22.2493 10.3465 21.828 10.2292 21.572 9.99449C21.348 9.78115 21.2093 9.55182 21.156 9.30649C21.156 9.19982 21.252 9.07182 21.444 8.92249C22.2973 8.41049 22.9267 8.15449 23.332 8.15449C23.3747 8.15449 23.396 8.17049 23.396 8.20249C23.396 8.22382 23.38 8.26649 23.348 8.33049C23.348 8.36249 23.364 8.37849 23.396 8.37849C23.6627 8.29315 23.9507 8.20782 24.26 8.12249C24.58 8.03715 25.2787 7.91982 26.356 7.77049C27.444 7.61049 28.5053 7.53049 29.54 7.53049C30.5853 7.53049 31.236 7.62649 31.492 7.81849L32.564 8.49049C32.6813 8.57582 32.74 8.67182 32.74 8.77849C32.74 8.87449 32.66 8.94915 32.5 9.00249C32.34 9.05582 32.1267 9.14115 31.86 9.25849C31.5933 9.36515 31.0493 9.62649 30.228 10.0425C29.4173 10.4478 28.6013 10.8958 27.78 11.3865C26.9693 11.8665 25.9987 12.5118 24.868 13.3225C23.7373 14.1225 22.6653 14.9705 21.652 15.8665C21.4067 16.0692 21.284 16.1918 21.284 16.2345C21.284 16.2772 21.2947 16.2985 21.316 16.2985C21.3373 16.2985 21.4013 16.2878 21.508 16.2665C22.692 15.8718 23.828 15.6745 24.916 15.6745C26.004 15.6745 26.932 15.9145 27.7 16.3945C28.468 16.8638 28.852 17.4292 28.852 18.0905C28.852 18.1545 28.8253 18.1865 28.772 18.1865L28.644 18.1545C28.6013 18.0372 28.1587 17.9358 27.316 17.8505C26.484 17.7758 25.6947 17.7385 24.948 17.7385C22.484 17.7385 20.6867 17.9198 19.556 18.2825C19.4813 18.3145 19.396 18.3305 19.3 18.3305C19.0653 18.3305 18.884 18.2132 18.756 17.9785C18.5107 17.9252 18.388 17.7705 18.388 17.5145C18.388 16.8852 19.0813 16.0158 20.468 14.9065C21.844 13.7865 23.4813 12.6985 25.38 11.6425C27.2893 10.5865 29.076 9.74382 30.74 9.11449C30.836 9.06115 30.884 9.02382 30.884 9.00249C30.884 8.98115 30.8627 8.97049 30.82 8.97049ZM31.348 17.1625L31.476 16.1385C31.476 16.1065 31.4653 16.0905 31.444 16.0905C31.4333 16.0905 31.4067 16.1118 31.364 16.1545C31.2253 16.3038 31.0493 16.4905 30.836 16.7145C30.6227 16.9278 30.2547 17.2212 29.732 17.5945C29.22 17.9572 28.804 18.1385 28.484 18.1385C28.4307 18.1278 28.3667 18.1065 28.292 18.0745C28.2067 18.0532 28.1 17.9678 27.972 17.8185C27.844 17.6692 27.78 17.4558 27.78 17.1785C27.78 16.9012 27.9933 16.4798 28.42 15.9145C28.836 15.3385 29.3373 14.7785 29.924 14.2345C30.5107 13.6798 31.1613 13.1998 31.876 12.7945C32.6013 12.3892 33.2307 12.1865 33.764 12.1865C33.9667 12.1972 34.1267 12.3412 34.244 12.6185C34.3507 12.5118 34.4467 12.4585 34.532 12.4585C34.6173 12.4585 34.7187 12.5225 34.836 12.6505C34.9 12.6612 34.964 12.6985 35.028 12.7625C35.092 12.8158 35.124 12.8958 35.124 13.0025C35.124 13.1092 35.0493 13.2265 34.9 13.3545C34.676 13.6318 34.4147 13.9465 34.116 14.2985C33.8173 14.6505 33.604 14.9065 33.476 15.0665C33.348 15.2158 33.2147 15.3865 33.076 15.5785C32.8413 15.9092 32.7133 16.1758 32.692 16.3785C33.78 15.8558 35.492 14.7305 37.828 13.0025C37.924 13.0772 37.972 13.1678 37.972 13.2745C37.972 13.3812 37.9293 13.4718 37.844 13.5465C37.7587 13.6212 37.652 13.7118 37.524 13.8185C37.4067 13.9252 37.1667 14.1332 36.804 14.4425C36.4413 14.7518 36.0893 15.0505 35.748 15.3385C35.4173 15.6158 35.0333 15.9305 34.596 16.2825C34.1693 16.6238 33.7853 16.9172 33.444 17.1625C32.6227 17.7492 32.1107 18.0425 31.908 18.0425C31.7053 18.0425 31.5613 17.9785 31.476 17.8505C31.3907 17.7225 31.348 17.4932 31.348 17.1625ZM29.716 16.4905C29.844 16.4905 30.2333 16.2292 30.884 15.7065C31.5453 15.1838 32.1693 14.6612 32.756 14.1385L33.652 13.3545C33.6947 13.3118 33.716 13.2852 33.716 13.2745C33.716 13.2532 33.7 13.2425 33.668 13.2425C33.2627 13.2425 32.7347 13.4772 32.084 13.9465C31.4333 14.4052 30.868 14.8958 30.388 15.4185C29.9187 15.9305 29.684 16.2772 29.684 16.4585C29.684 16.4798 29.6947 16.4905 29.716 16.4905ZM35.2951 14.8425C35.8818 14.4372 36.4951 13.9998 37.1351 13.5305C36.7938 13.2958 36.5751 13.0665 36.4791 12.8425C36.4471 12.7678 36.4311 12.7145 36.4311 12.6825C36.4311 12.4692 36.5005 12.3305 36.6391 12.2665C36.7778 12.1918 37.0018 12.1545 37.3111 12.1545C37.4285 12.1545 37.7751 12.2985 38.3511 12.5865C38.9271 12.8745 39.2898 13.0185 39.4391 13.0185C39.5991 13.0185 39.8178 12.9758 40.0951 12.8905C40.3725 12.7945 40.5911 12.7465 40.7511 12.7465C40.9218 12.7465 41.0445 12.7838 41.1191 12.8585C41.3858 13.2105 41.5191 13.4238 41.5191 13.4985C41.5191 13.5732 41.4818 13.6372 41.4071 13.6905C41.3431 13.7332 41.1245 13.8825 40.7511 14.1385C40.3885 14.3945 40.0311 14.6558 39.6791 14.9225C39.3271 15.1892 38.9965 15.4878 38.6871 15.8185C38.3778 16.1492 38.2231 16.4158 38.2231 16.6185C38.2231 16.6505 38.2498 16.6665 38.3031 16.6665C38.8791 16.6665 40.8205 15.4985 44.1271 13.1625C44.2018 13.1625 44.2391 13.2318 44.2391 13.3705C44.2391 13.4985 43.8178 13.9572 42.9751 14.7465C42.1325 15.5252 41.1778 16.2932 40.1111 17.0505C39.0551 17.7972 38.2871 18.1705 37.8071 18.1705C37.0605 18.1705 36.6871 17.7972 36.6871 17.0505C36.6871 16.6452 36.8205 16.2558 37.0871 15.8825C37.3645 15.4985 37.9405 14.9865 38.8151 14.3465C38.6338 14.3465 38.3885 14.3038 38.0791 14.2185C37.7698 14.1225 37.5725 14.0105 37.4871 13.8825C37.2098 14.1278 36.7298 14.5385 36.0471 15.1145C35.8871 15.2318 35.6791 15.2905 35.4231 15.2905C35.1671 15.2905 35.0391 15.2532 35.0391 15.1785C35.0391 15.0932 35.1245 14.9812 35.2951 14.8425ZM47.3438 13.1625C47.5038 13.2798 47.5838 13.3918 47.5838 13.4985C47.5838 13.5945 47.5358 13.6852 47.4398 13.7705C47.3544 13.8558 46.8584 14.5118 45.9518 15.7385C45.0451 16.9545 44.4318 17.7918 44.1118 18.2505C43.8024 18.7092 43.5838 19.0398 43.4557 19.2425C43.3278 19.4558 43.0611 19.8292 42.6558 20.3625C42.2611 20.8958 41.8611 21.3758 41.4558 21.8025C41.0504 22.2398 40.5651 22.6558 39.9997 23.0505C39.4237 23.4558 38.8744 23.7118 38.3517 23.8185C38.1277 23.8185 37.9037 23.7705 37.6797 23.6745C37.2531 23.4932 37.0397 23.1572 37.0397 22.6665C37.0397 22.0478 37.6211 21.3172 38.7837 20.4745C39.9357 19.6425 40.7944 19.2265 41.3598 19.2265C41.4451 19.2265 41.4878 19.2425 41.4878 19.2745C41.4878 19.3065 41.4344 19.3598 41.3277 19.4345C40.4104 20.0638 39.5784 20.7412 38.8317 21.4665C38.0744 22.2025 37.6957 22.7252 37.6957 23.0345C37.6957 23.0772 37.7277 23.0985 37.7917 23.0985C37.8557 23.0985 37.9944 23.0292 38.2077 22.8905C38.7197 22.5278 39.4451 21.8665 40.3837 20.9065C41.4184 19.7545 42.0531 19.0185 42.2878 18.6985C42.7038 18.1332 43.1998 17.5465 43.7758 16.9385L44.0958 16.6025C44.1064 16.5812 44.1224 16.5598 44.1438 16.5385C44.1651 16.5172 44.1918 16.4798 44.2238 16.4265C44.3091 16.2878 44.3464 16.2185 44.3358 16.2185C44.3038 16.2185 44.2344 16.2718 44.1278 16.3785C44.0211 16.4852 43.8664 16.6345 43.6638 16.8265C43.4718 17.0078 43.1411 17.2585 42.6718 17.5785C42.2024 17.8878 41.8238 18.0425 41.5358 18.0425C41.2477 18.0425 41.0237 17.9465 40.8637 17.7545C40.7037 17.5625 40.6237 17.3598 40.6237 17.1465C40.6237 16.9225 40.7624 16.5918 41.0397 16.1545C41.3171 15.7172 41.6798 15.2425 42.1278 14.7305C42.5758 14.2185 43.1518 13.7438 43.8558 13.3065C44.5704 12.8692 45.3011 12.6078 46.0477 12.5225C46.4851 12.6185 46.7678 12.7732 46.8958 12.9865C46.9171 12.9758 46.9598 12.9705 47.0238 12.9705C47.0878 12.9705 47.1944 13.0345 47.3438 13.1625ZM42.3838 16.5385C42.6611 16.5172 43.1411 16.2612 43.8238 15.7705C44.5171 15.2798 45.1411 14.7892 45.6958 14.2985C46.2611 13.8078 46.5438 13.5252 46.5438 13.4505C46.5438 13.4292 46.5224 13.4185 46.4798 13.4185C45.9251 13.5358 45.3064 13.8292 44.6238 14.2985C43.9411 14.7678 43.3864 15.2212 42.9598 15.6585C42.5331 16.0958 42.3198 16.3732 42.3198 16.4905C42.3198 16.5225 42.3411 16.5385 42.3838 16.5385ZM50.3728 16.4265C50.3728 16.4798 50.3941 16.5065 50.4368 16.5065C50.4794 16.5065 50.5648 16.4745 50.6927 16.4105C52.2821 15.5572 54.0314 14.4212 55.9408 13.0025C56.0368 13.0772 56.0848 13.1678 56.0848 13.2745C56.0848 13.3812 56.0314 13.4825 55.9248 13.5785C55.8181 13.6745 55.6634 13.8132 55.4608 13.9945C55.2688 14.1758 54.8954 14.5012 54.3408 14.9705C53.7861 15.4398 53.2688 15.8665 52.7888 16.2505C51.5301 17.2638 50.6021 17.8612 50.0048 18.0425C49.8128 18.0958 49.6048 18.1225 49.3808 18.1225C49.0181 18.1225 48.8368 17.8398 48.8368 17.2745C48.8368 17.0825 48.9541 16.7678 49.1888 16.3305C49.4234 15.8825 49.5408 15.5572 49.5408 15.3545C49.5408 15.3332 49.5248 15.3225 49.4928 15.3225C49.4608 15.3225 49.3808 15.3705 49.2528 15.4665C47.7701 16.6185 46.8688 17.4185 46.5488 17.8665C46.4848 17.9625 46.3994 18.0105 46.2927 18.0105C46.0581 18.0105 45.9087 17.8985 45.8447 17.6745C45.8447 17.3545 46.2928 16.5438 47.1888 15.2425C48.0954 13.9412 49.1568 12.5758 50.3728 11.1465C51.5888 9.70649 52.5808 8.69315 53.3488 8.10649C53.5728 7.89315 54.0954 7.78649 54.9167 7.78649C55.0448 7.81849 55.1088 7.87182 55.1088 7.94649C55.1088 8.02115 55.0714 8.09582 54.9968 8.17049C51.9248 11.1358 49.9728 13.1892 49.1408 14.3305C49.0981 14.3732 49.0394 14.4532 48.9648 14.5705C48.9008 14.6772 48.8688 14.7465 48.8688 14.7785L48.8848 14.7945C48.9274 14.7945 49.2634 14.5598 49.8928 14.0905C50.5221 13.6105 50.9914 13.2692 51.3008 13.0665C51.3968 12.9705 51.5994 12.9225 51.9088 12.9225C52.1754 12.9545 52.3088 13.0398 52.3088 13.1785C52.3088 13.2212 52.2981 13.2585 52.2768 13.2905C51.4874 14.4105 51.0128 15.1252 50.8528 15.4345C50.5328 15.9358 50.3728 16.2665 50.3728 16.4265ZM55.8011 17.1625L55.9291 16.1385C55.9291 16.1065 55.9185 16.0905 55.8971 16.0905C55.8865 16.0905 55.8598 16.1118 55.8171 16.1545C55.6785 16.3038 55.5025 16.4905 55.2891 16.7145C55.0758 16.9278 54.7078 17.2212 54.1851 17.5945C53.6731 17.9572 53.2571 18.1385 52.9371 18.1385C52.8838 18.1278 52.8198 18.1065 52.7451 18.0745C52.6598 18.0532 52.5531 17.9678 52.4251 17.8185C52.2971 17.6692 52.2331 17.4558 52.2331 17.1785C52.2331 16.9012 52.4465 16.4798 52.8731 15.9145C53.2891 15.3385 53.7905 14.7785 54.3771 14.2345C54.9638 13.6798 55.6145 13.1998 56.3291 12.7945C57.0545 12.3892 57.6838 12.1865 58.2171 12.1865C58.4198 12.1972 58.5798 12.3412 58.6971 12.6185C58.8038 12.5118 58.8998 12.4585 58.9851 12.4585C59.0705 12.4585 59.1718 12.5225 59.2891 12.6505C59.3531 12.6612 59.4171 12.6985 59.4811 12.7625C59.5451 12.8158 59.5771 12.8958 59.5771 13.0025C59.5771 13.1092 59.5025 13.2265 59.3531 13.3545C59.1291 13.6318 58.8678 13.9465 58.5691 14.2985C58.2705 14.6505 58.0571 14.9065 57.9291 15.0665C57.8011 15.2158 57.6678 15.3865 57.5291 15.5785C57.2945 15.9092 57.1665 16.1758 57.1451 16.3785C58.2331 15.8558 59.9451 14.7305 62.2811 13.0025C62.3771 13.0772 62.4251 13.1678 62.4251 13.2745C62.4251 13.3812 62.3825 13.4718 62.2971 13.5465C62.2118 13.6212 62.1051 13.7118 61.9771 13.8185C61.8598 13.9252 61.6198 14.1332 61.2571 14.4425C60.8945 14.7518 60.5425 15.0505 60.2011 15.3385C59.8705 15.6158 59.4865 15.9305 59.0491 16.2825C58.6225 16.6238 58.2385 16.9172 57.8971 17.1625C57.0758 17.7492 56.5638 18.0425 56.3611 18.0425C56.1585 18.0425 56.0145 17.9785 55.9291 17.8505C55.8438 17.7225 55.8011 17.4932 55.8011 17.1625ZM54.1691 16.4905C54.2971 16.4905 54.6865 16.2292 55.3371 15.7065C55.9985 15.1838 56.6225 14.6612 57.2091 14.1385L58.1051 13.3545C58.1478 13.3118 58.1691 13.2852 58.1691 13.2745C58.1691 13.2532 58.1531 13.2425 58.1211 13.2425C57.7158 13.2425 57.1878 13.4772 56.5371 13.9465C55.8865 14.4052 55.3211 14.8958 54.8411 15.4185C54.3718 15.9305 54.1371 16.2772 54.1371 16.4585C54.1371 16.4798 54.1478 16.4905 54.1691 16.4905ZM66.2915 16.8425C66.2915 16.9385 66.3502 16.9865 66.4675 16.9865C66.5955 16.9865 66.8195 16.9118 67.1395 16.7625C67.4702 16.6132 67.8595 16.3838 68.3075 16.0745C68.7662 15.7652 69.3688 15.3278 70.1155 14.7625C70.8728 14.1865 71.5342 13.7012 72.0995 13.3065C72.1955 13.3812 72.2435 13.4718 72.2435 13.5785C72.2435 13.6852 72.1955 13.7812 72.0995 13.8665C71.7582 14.1972 71.3262 14.6132 70.8035 15.1145C70.2808 15.6052 69.4808 16.2665 68.4035 17.0985C67.3368 17.9305 66.5902 18.3465 66.1635 18.3465C65.3422 18.3465 64.9315 17.9092 64.9315 17.0345C64.9315 16.7038 65.0595 16.3572 65.3155 15.9945L66.0035 15.0505C66.0675 14.9545 66.0995 14.9012 66.0995 14.8905C66.0995 14.8692 66.0675 14.8852 66.0035 14.9385C64.1475 16.4852 62.9635 17.3918 62.4515 17.6585C62.3662 17.7118 62.2595 17.7385 62.1315 17.7385C61.7795 17.7385 61.6035 17.5785 61.6035 17.2585C61.6035 17.1518 61.6302 17.0558 61.6835 16.9705C62.3022 16.0745 62.7768 15.4718 63.1075 15.1625L63.3795 14.8905C63.4008 14.8692 63.4115 14.8478 63.4115 14.8265C63.4115 14.8052 63.4008 14.7945 63.3795 14.7945C63.3582 14.7945 63.3262 14.8158 63.2835 14.8585L61.5715 16.2025C60.5795 16.9812 60.0355 17.3972 59.9395 17.4505C59.8542 17.4932 59.7742 17.5145 59.6995 17.5145C59.6248 17.5145 59.5075 17.4718 59.3475 17.3865C59.1875 17.2905 59.1075 17.1838 59.1075 17.0665C59.1075 17.0345 59.1235 16.9918 59.1555 16.9385C60.2008 15.7865 60.9635 14.8372 61.4435 14.0905C61.6462 13.7705 61.8222 13.4878 61.9715 13.2425C62.1315 12.9865 62.2542 12.8052 62.3395 12.6985C62.4355 12.5918 62.5368 12.5385 62.6435 12.5385C62.7502 12.5385 62.8675 12.6025 62.9955 12.7305C63.1342 12.8478 63.2035 12.9705 63.2035 13.0985C63.2035 13.2265 63.1608 13.3598 63.0755 13.4985C62.7128 14.1492 62.4302 14.5705 62.2275 14.7625C62.1955 14.7945 62.1795 14.8265 62.1795 14.8585C62.1795 14.8798 62.1902 14.8905 62.2115 14.8905L62.2595 14.8745L64.4035 13.3865C64.9475 13.0132 65.2728 12.8265 65.3795 12.8265C65.4862 12.8265 65.5982 12.8638 65.7155 12.9385C65.8435 13.0025 65.9075 13.0772 65.9075 13.1625C65.9075 13.2478 65.8808 13.3332 65.8275 13.4185L64.7875 14.8425C64.6488 15.0132 64.5795 15.1092 64.5795 15.1305C64.5795 15.1518 64.5848 15.1625 64.5955 15.1625L64.6755 15.1145C66.0088 14.2078 66.9102 13.5785 67.3795 13.2265C67.8595 12.8745 68.1475 12.6505 68.2435 12.5545C68.3928 12.4478 68.5155 12.3945 68.6115 12.3945C68.7182 12.3945 68.7875 12.4052 68.8195 12.4265L69.1715 12.6985C69.2782 12.7518 69.3315 12.8212 69.3315 12.9065C69.3315 12.9918 69.3102 13.0612 69.2675 13.1145C68.6382 13.7972 68.1315 14.3412 67.7475 14.7465C67.3742 15.1518 67.1022 15.4505 66.9315 15.6425C66.6542 15.9732 66.4835 16.2398 66.4195 16.4425C66.3342 16.5918 66.2915 16.7252 66.2915 16.8425Z" fill="white"/>
<defs>
<linearGradient id="paint0_linear_31_21" x1="-4.5" y1="13.3345" x2="20.5" y2="13.3345" gradientUnits="userSpaceOnUse">
<stop stop-color="#F3904F"/>
<stop offset="1" stop-color="#3B4371"/>
</linearGradient>
<linearGradient id="paint1_linear_31_21" x1="-1" y1="13.3345" x2="24" y2="13.3345" gradientUnits="userSpaceOnUse">
<stop stop-color="#F3904F"/>
<stop offset="1" stop-color="#3B4371"/>
</linearGradient>
<linearGradient id="paint2_linear_31_21" x1="3" y1="13.3345" x2="28" y2="13.3345" gradientUnits="userSpaceOnUse">
<stop stop-color="#F3904F"/>
<stop offset="1" stop-color="#3B4371"/>
</linearGradient>
<linearGradient id="paint3_linear_31_21" x1="8" y1="13.3345" x2="33" y2="13.3345" gradientUnits="userSpaceOnUse">
<stop stop-color="#F3904F"/>
<stop offset="1" stop-color="#3B4371"/>
</linearGradient>
</defs>
</svg>
