<svg width="1281" height="234" viewBox="0 0 1281 234" fill="none" xmlns="http://www.w3.org/2000/svg">
<path d="M451.25 0.5L0.403073 233.5" stroke="#B3B3B3"/>
<path d="M478.272 0.5L127.256 233.5" stroke="#B3B3B3"/>
<path d="M505.294 0.5L233.311 233.5" stroke="#B3B3B3"/>
<path d="M532.316 0.5L326.301 233.5" stroke="#B3B3B3"/>
<path d="M559.338 0.5L410.864 233.5" stroke="#B3B3B3"/>
<path d="M586.359 0.5L490.031 233.5" stroke="#B3B3B3"/>
<path d="M613.381 0.5L565.973 233.5" stroke="#B3B3B3"/>
<path d="M640.403 0.5V233.5" stroke="#B3B3B3"/>
<path d="M667.425 0.5L714.833 233.5" stroke="#B3B3B3"/>
<path d="M694.447 0.5L790.775 233.5" stroke="#B3B3B3"/>
<path d="M721.469 0.5L869.943 233.5" stroke="#B3B3B3"/>
<path d="M748.49 0.5L954.505 233.5" stroke="#B3B3B3"/>
<path d="M775.512 0.5L1047.5 233.5" stroke="#B3B3B3"/>
<path d="M802.534 0.5L1153.55 233.5" stroke="#B3B3B3"/>
<path d="M829.556 0.5L1280.4 233.5" stroke="#B3B3B3"/>
<path d="M451.25 0.5H829.556" stroke="#B3B3B3"/>
<path d="M451.25 0.5H829.556" stroke="#B3B3B3"/>
<path d="M451.25 0.500061H829.556" stroke="#B3B3B3"/>
<path d="M451.25 0.500488H829.556" stroke="#B3B3B3"/>
<path d="M451.247 0.501648H829.559" stroke="#B3B3B3"/>
<path d="M451.238 0.506287H829.568" stroke="#B3B3B3"/>
<path d="M451.215 0.51825H829.591" stroke="#B3B3B3"/>
<path d="M451.161 0.546082H829.645" stroke="#B3B3B3"/>
<path d="M451.052 0.602661H829.755" stroke="#B3B3B3"/>
<path d="M450.847 0.708191H829.959" stroke="#B3B3B3"/>
<path d="M450.492 0.891724H830.314" stroke="#B3B3B3"/>
<path d="M449.907 1.19397H830.899" stroke="#B3B3B3"/>
<path d="M448.987 1.66968H831.819" stroke="#B3B3B3"/>
<path d="M447.592 2.39075H833.214" stroke="#B3B3B3"/>
<path d="M445.543 3.4494H835.263" stroke="#B3B3B3"/>
<path d="M442.617 4.96185H838.189" stroke="#B3B3B3"/>
<path d="M438.534 7.07184H842.272" stroke="#B3B3B3"/>
<path d="M432.955 9.95502H847.851" stroke="#B3B3B3"/>
<path d="M425.471 13.823H855.335" stroke="#B3B3B3"/>
<path d="M415.592 18.9285H865.214" stroke="#B3B3B3"/>
<path d="M402.741 25.5696H878.065" stroke="#B3B3B3"/>
<path d="M386.244 34.0957H894.562" stroke="#B3B3B3"/>
<path d="M365.314 44.9124H915.492" stroke="#B3B3B3"/>
<path d="M339.046 58.4876H941.76" stroke="#B3B3B3"/>
<path d="M306.403 75.3575H974.403" stroke="#B3B3B3"/>
<path d="M266.203 96.1331H1014.6" stroke="#B3B3B3"/>
<path d="M217.107 121.506H1063.7" stroke="#B3B3B3"/>
<path d="M157.604 152.258H1123.2" stroke="#B3B3B3"/>
<path d="M86.0008 189.263H1194.81" stroke="#B3B3B3"/>
<path d="M0.403047 233.5H1280.4" stroke="#B3B3B3"/>
</svg>
